<?xml version="1.0" encoding="utf-8"?><!DOCTYPE svg PUBLIC "-//W3C//DTD SVG 1.1//EN" "http://www.w3.org/Graphics/SVG/1.1/DTD/svg11.dtd"><svg version="1.1" xmlns="http://www.w3.org/2000/svg" width="640" height="160" viewBox="0 0 640 160"><g transform="scale(0.303,0.303)"><g transform="translate(0,0)"><g transform="translate(0,0)"><g transform="translate(0,0) scale(1,1)"><g transform="scale(2.9464285714285716,2.9464285714285716) translate(19.599999999999994,25.099999999999994)"><g transform="translate(0.000000,129.000000) scale(0.100000,-0.100000)"
fill="#CC3300" stroke="none">
<path d="M490 1280 c0 -5 10 -20 21 -31 16 -16 22 -35 23 -72 1 -51 1 -52 -39
-66 -23 -8 -71 -14 -113 -13 -66 1 -71 0 -63 -17 14 -24 74 -70 111 -83 24 -8
35 -7 48 4 37 32 41 30 27 -21 -16 -61 -23 -73 -38 -64 -7 4 -33 15 -60 24
-55 19 -55 20 -11 -79 27 -60 24 -70 -28 -117 -94 -86 -148 -117 -206 -117
-47 0 -49 -16 -5 -34 69 -29 215 5 279 65 l32 30 5 -47 c4 -26 9 -59 13 -74 5
-22 2 -27 -17 -30 -23 -4 -23 -5 6 -17 24 -10 41 -10 83 -1 30 6 55 10 57 8 2
-2 5 -46 7 -98 l3 -95 -63 -3 c-37 -2 -60 -7 -57 -13 4 -5 12 -6 18 -3 7 4 9
3 4 -1 -8 -10 41 -65 57 -65 13 0 37 -35 30 -42 -2 -3 -23 -1 -47 3 -23 5 -96
16 -162 24 -162 22 -165 22 -165 52 0 13 -5 44 -11 68 -9 36 -8 47 5 68 33 50
-17 92 -107 91 -73 -1 -89 -19 -47 -49 16 -11 36 -38 45 -61 8 -22 26 -55 40
-74 37 -50 22 -66 -66 -74 l-72 -7 7 -57 c10 -81 44 -109 81 -67 19 23 120 38
200 31 66 -6 106 -13 230 -41 97 -22 227 -57 255 -68 19 -8 65 -20 102 -28 62
-12 74 -11 140 9 40 11 92 26 116 32 23 6 42 15 42 20 0 6 8 10 19 10 10 0 29
8 42 18 38 28 105 62 123 62 9 0 16 7 16 16 0 9 -5 12 -12 8 -7 -4 -62 -7
-123 -6 -60 1 -155 -2 -210 -7 -63 -6 -147 -5 -227 2 -111 9 -126 12 -119 26
20 38 32 296 15 323 -5 8 8 9 40 6 l47 -6 55 113 c29 62 61 118 69 125 12 10
26 8 75 -14 47 -21 73 -26 124 -25 59 2 64 4 56 20 -22 41 -101 93 -210 140
-63 26 -121 49 -127 49 -19 0 -16 11 13 41 23 24 24 29 12 48 -7 12 -31 30
-54 41 -48 24 -61 25 -44 5 10 -12 8 -22 -14 -55 l-26 -39 -47 14 c-65 20 -79
20 -62 -1 7 -8 25 -22 41 -30 15 -8 28 -19 28 -25 0 -11 -47 -58 -76 -75 -41
-25 -2 -24 75 3 62 21 86 25 99 17 24 -16 21 -29 -8 -32 -22 -3 -193 -54 -229
-69 -26 -11 0 109 49 222 5 11 11 29 14 41 7 23 153 99 186 97 37 -3 20 25
-24 42 -44 17 -90 17 -131 0 -16 -7 -18 -6 -9 6 6 8 14 26 16 41 4 24 0 29
-34 43 -43 17 -138 21 -138 5z m310 -497 c0 -5 -5 -25 -11 -46 -10 -36 -12
-38 -28 -23 -25 23 -55 20 -140 -14 -41 -16 -75 -28 -76 -27 -13 29 -25 60
-25 66 0 4 33 11 73 14 39 3 90 12 112 21 43 16 95 21 95 9z m-26 -139 c-6
-38 -7 -39 -52 -41 -26 -1 -76 -11 -112 -22 -35 -11 -65 -19 -65 -18 -1 1 0
20 3 43 l4 41 95 12 c53 6 103 16 112 20 21 13 23 10 15 -35z"/>
<path d="M11 836 c36 -43 68 -69 114 -92 45 -21 55 -23 85 -13 19 7 36 13 38
14 6 5 -53 84 -68 90 -8 4 -53 9 -99 12 -79 6 -84 5 -70 -11z"/>
<path d="M762 451 c-18 -11 104 -90 149 -97 64 -9 75 25 24 80 -21 23 -31 26
-92 26 -37 0 -74 -4 -81 -9z"/>
<path d="M433 412 c-39 -9 -63 -21 -63 -29 0 -24 26 -77 47 -95 19 -17 20 -16
56 55 20 41 37 77 37 80 0 8 0 8 -77 -11z"/>
</g>
</g></g></g><g transform="translate(528,0)"><g transform="translate(0,0) scale(1,1)"><g transform="scale(2.9464285714285716,2.9464285714285716) translate(19.599999999999994,34.599999999999994)"><g transform="translate(0.000000,110.000000) scale(0.100000,-0.100000)"
fill="#CC3300" stroke="none">
<path d="M193 1073 c15 -16 27 -32 27 -36 0 -10 17 -30 60 -73 33 -33 37 -34
93 -30 33 3 61 6 62 8 2 2 -13 28 -33 58 -41 60 -85 83 -184 96 l-53 7 28 -30z"/>
<path d="M1220 1009 c-35 -9 -84 -16 -170 -24 -75 -8 -287 -57 -390 -92 -131
-43 -269 -58 -327 -36 -24 9 -12 -16 38 -83 50 -66 46 -66 224 -4 103 35 281
80 319 80 7 0 23 -21 36 -47 18 -37 25 -72 30 -158 6 -96 4 -445 -3 -451 -6
-7 -204 -5 -221 2 -41 16 3 -33 51 -57 26 -13 62 -33 78 -44 44 -29 124 -65
146 -65 10 0 19 -4 19 -9 0 -18 35 -4 38 15 11 88 19 218 21 379 3 246 6 294
20 308 6 6 11 23 11 38 0 22 -8 31 -46 48 -25 12 -59 24 -75 28 -44 9 -46 24
-2 25 21 0 103 2 183 3 124 2 200 13 200 29 0 25 -37 78 -69 99 -43 29 -55 30
-111 16z"/>
<path d="M73 767 c70 -73 118 -100 154 -86 13 5 23 6 23 3 0 -4 6 -1 14 5 12
10 10 19 -9 59 -20 41 -28 49 -67 59 -25 7 -75 15 -112 19 l-66 7 63 -66z"/>
<path d="M680 709 c-30 -22 -68 -46 -85 -54 -30 -15 -29 -15 25 -10 30 3 67 8
82 11 22 5 26 3 23 -12 -2 -11 -4 -37 -4 -59 -1 -39 -3 -41 -43 -52 -24 -6
-47 -13 -53 -15 -5 -2 -13 11 -18 29 -5 17 -22 47 -38 65 -24 27 -30 30 -38
18 -17 -25 -25 -121 -12 -142 14 -22 7 -38 -17 -38 -26 -1 28 -29 55 -30 12 0
48 11 79 25 65 29 74 30 74 11 0 -8 10 -22 22 -30 21 -15 24 -14 44 6 12 13
45 73 72 135 l50 112 -22 14 c-11 8 -39 20 -61 28 -22 7 -44 17 -49 21 -16 13
-29 9 -86 -33z"/>
<path d="M426 631 c-21 -25 -100 -110 -175 -189 -131 -138 -137 -143 -169
-137 -31 6 -32 5 -26 -21 4 -15 14 -35 23 -44 9 -10 23 -26 31 -37 24 -31 62
-53 92 -53 16 0 28 4 28 10 0 5 20 43 45 83 25 41 45 78 45 82 0 5 11 23 25
41 14 18 25 36 25 39 0 3 12 32 26 63 31 67 65 162 58 162 -3 0 0 9 6 21 20
35 7 28 -34 -20z"/>
</g>
</g></g></g><g transform="translate(1056,0)"><g transform="translate(0,0) scale(1,1)"><g transform="scale(2.9464285714285716,2.9464285714285716) translate(19.599999999999994,27.099999999999994)"><g transform="translate(0.000000,125.000000) scale(0.100000,-0.100000)"
fill="#CC3300" stroke="none">
<path d="M920 1223 l20 -28 -22 -135 c-21 -122 -25 -136 -48 -147 -18 -9 -20
-13 -7 -13 22 0 22 -13 -7 -97 -33 -98 -40 -108 -80 -120 -20 -6 -36 -10 -36
-9 0 0 5 17 10 36 6 19 15 107 19 195 5 88 10 165 12 170 2 6 0 12 -6 14 -5 2
-25 10 -43 18 -24 10 -51 12 -94 7 -57 -7 -60 -8 -36 -20 24 -13 39 -47 57
-132 l9 -44 -66 -30 c-47 -21 -77 -28 -99 -25 -21 4 -36 1 -44 -9 -6 -8 -7
-14 -2 -14 5 0 24 -20 43 -44 26 -36 41 -46 72 -51 32 -6 44 -3 62 14 32 30
46 26 46 -13 0 -18 3 -47 6 -64 5 -25 3 -31 -17 -37 -13 -5 -62 -26 -109 -48
-47 -22 -98 -44 -115 -48 -28 -7 -29 -8 -7 -14 26 -9 26 -3 7 -84 -21 -86 -31
-231 -17 -231 6 0 13 -8 16 -18 7 -20 64 -82 76 -82 41 0 30 264 -15 350 -18
35 -14 50 9 31 9 -8 27 -10 45 -6 46 10 61 -20 54 -110 -5 -65 -3 -77 17 -107
37 -54 61 -68 99 -63 19 3 36 7 37 8 1 1 -7 21 -18 44 -11 24 -35 52 -54 64
-19 11 -34 25 -34 29 0 12 57 70 69 70 15 0 22 30 11 50 -5 10 -33 27 -61 37
l-50 19 78 37 c44 20 81 37 84 37 3 0 0 -39 -7 -87 -17 -113 -17 -257 0 -306
14 -38 42 -77 57 -77 4 0 16 26 27 58 28 84 25 306 -6 376 -12 27 -22 50 -22
51 0 3 30 12 76 24 48 13 57 -11 38 -101 -8 -40 -15 -86 -14 -101 1 -36 34
-103 68 -140 23 -24 33 -28 79 -26 29 1 50 6 47 10 -2 4 2 9 11 11 12 2 11 9
-6 36 -15 22 -43 43 -90 65 -38 17 -69 37 -69 44 0 7 27 40 61 74 38 38 58 66
55 75 -3 9 -28 25 -56 37 -27 12 -50 25 -50 28 0 9 116 29 165 29 l37 0 -5
-227 c-4 -126 -6 -234 -7 -240 0 -10 -22 -11 -91 -6 l-91 6 55 -54 c152 -149
177 -170 190 -157 37 39 51 76 62 163 15 130 60 364 81 427 l16 48 -29 28
c-15 15 -56 38 -90 51 -35 13 -63 28 -63 34 0 12 -111 4 -185 -13 -27 -6 -57
-13 -65 -15 -8 -2 -27 -6 -42 -10 -34 -9 -35 -5 -2 30 14 15 39 51 55 81 l31
54 81 1 c45 0 104 6 130 12 47 12 47 12 31 35 -8 13 -34 34 -56 48 -37 23 -45
25 -83 15 -23 -6 -50 -14 -60 -17 -15 -6 -16 -2 -10 37 4 24 11 50 16 59 5 8
17 39 28 68 l19 52 -33 15 c-19 7 -56 16 -82 20 -26 3 -58 8 -71 11 l-23 5 21
-28z"/>
<path d="M187 1144 c-11 -11 41 -99 82 -138 35 -34 49 -41 96 -46 l56 -6 -7
30 c-3 17 -16 49 -28 71 -17 33 -30 43 -72 57 -28 9 -62 18 -75 20 -13 2 -29
7 -35 10 -6 4 -14 5 -17 2z"/>
<path d="M45 818 c22 -72 98 -140 171 -154 21 -4 41 -5 44 -3 10 8 10 48 0 54
-5 3 -10 14 -10 25 0 34 -63 77 -132 89 -83 14 -80 15 -73 -11z"/>
<path d="M375 630 c-27 -41 -80 -118 -119 -171 -39 -53 -93 -127 -119 -164
-47 -65 -49 -67 -82 -61 -41 8 -43 1 -14 -57 29 -56 47 -76 88 -93 33 -14 36
-13 56 8 34 37 160 312 205 447 54 164 50 190 -15 91z"/>
</g>
</g></g></g><g transform="translate(1584,0)"><g transform="translate(0,0) scale(1,1)"><g transform="scale(2.9464285714285716,2.9464285714285716) translate(19.599999999999994,29.099999999999994)"><g transform="translate(0.000000,121.000000) scale(0.100000,-0.100000)"
fill="#CC3300" stroke="none">
<path d="M425 1193 c4 -10 9 -33 12 -52 10 -68 31 -101 78 -122 24 -11 47 -24
50 -29 12 -19 -246 -103 -309 -101 -36 1 -38 0 -25 -17 100 -119 97 -117 144
-97 20 8 35 11 33 7 -38 -73 -48 -103 -39 -120 9 -17 -3 -26 -117 -82 -117
-57 -129 -61 -159 -51 -30 11 -83 6 -83 -8 0 -9 68 -62 119 -93 46 -27 62 -27
96 2 33 28 233 125 330 160 163 59 244 93 240 101 -9 13 -73 39 -99 39 -29 0
-32 5 -13 24 46 48 72 84 75 103 2 18 -4 23 -33 29 -20 3 -50 4 -68 1 -18 -2
-40 -2 -50 2 -14 5 5 18 73 51 83 39 90 45 74 57 -10 7 -44 13 -76 13 l-58 0
0 51 c0 43 -4 55 -29 77 -27 25 -131 72 -160 72 -9 0 -11 -6 -6 -17z m158
-353 c-1 -18 -9 -58 -18 -87 -13 -41 -24 -57 -43 -64 -24 -9 -61 -4 -49 7 2 3
-1 31 -8 62 -8 31 -11 58 -7 60 4 1 27 16 52 32 57 38 76 35 73 -10z"/>
<path d="M891 1093 c17 -45 1 -121 -45 -213 -31 -63 -47 -85 -61 -85 -23 -1
-22 -18 5 -55 30 -42 48 -54 63 -42 6 6 68 42 136 81 l124 71 31 -19 c45 -28
69 -29 157 -5 42 12 -30 94 -98 113 -21 6 -66 14 -100 17 l-62 7 19 25 c11 13
20 28 20 32 0 9 -140 83 -178 94 -21 7 -21 6 -11 -21z m170 -172 l17 -29 -56
-21 c-31 -11 -58 -18 -60 -16 -5 4 69 95 78 95 3 0 12 -13 21 -29z"/>
<path d="M1008 726 c-96 -55 -119 -71 -112 -78 3 -3 0 -24 -6 -47 -19 -73 -38
-267 -30 -306 4 -17 -4 -23 -50 -38 -30 -10 -59 -22 -63 -26 -5 -5 17 -18 47
-31 47 -19 61 -20 87 -11 27 9 52 8 38 -2 -2 -2 -27 -22 -55 -45 -63 -51 -152
-112 -168 -113 -28 -3 75 -18 125 -18 87 -1 123 19 159 87 16 31 39 71 50 89
13 20 17 34 10 38 -19 12 -10 23 30 39 55 22 60 21 60 -16 0 -19 9 -41 21 -54
l22 -23 -41 2 c-42 1 -64 -9 -47 -21 6 -4 16 -19 22 -34 25 -56 113 -92 247
-102 l48 -4 -6 31 c-4 18 -25 51 -48 74 -38 39 -47 43 -90 43 -54 0 -59 9 -28
55 17 26 20 47 20 160 0 111 19 268 35 295 14 22 -42 51 -185 96 -8 2 -50 -15
-92 -40z m98 -86 c1 -27 -2 -30 -28 -30 -16 0 -49 -11 -73 -25 l-43 -26 -21
41 -21 40 38 1 c20 0 55 6 77 14 62 20 70 19 71 -15z m4 -128 c0 -21 -5 -28
-20 -29 -11 -1 -45 -13 -75 -27 l-55 -25 0 44 c0 52 -2 51 133 63 12 2 17 -5
17 -26z m8 -128 c-3 -24 -11 -29 -73 -45 -38 -10 -73 -19 -77 -19 -5 0 -8 18
-8 40 0 38 1 39 28 34 15 -2 47 0 72 5 25 5 49 9 53 10 5 1 7 -11 5 -25z"/>
<path d="M553 545 c-18 -8 -53 -28 -77 -45 -25 -16 -68 -35 -96 -42 -37 -8
-47 -14 -36 -20 19 -11 33 -62 41 -159 5 -53 4 -79 -4 -84 -8 -4 1 -17 25 -36
20 -16 40 -29 43 -29 3 1 38 12 76 25 l70 24 3 -23 c2 -13 14 -34 28 -47 l26
-24 19 23 c10 13 23 43 29 65 6 23 15 51 20 62 5 11 14 47 21 80 6 33 21 86
32 118 11 31 18 59 16 61 -2 2 -34 17 -70 35 -73 34 -116 38 -166 16z m67
-120 c0 -30 -4 -35 -27 -41 -16 -3 -42 -12 -60 -20 -40 -18 -43 -18 -43 6 0
12 10 24 23 30 12 5 40 20 62 34 22 14 41 26 43 26 1 0 2 -16 2 -35z m-10
-137 c0 -20 -9 -25 -65 -39 -60 -15 -65 -15 -65 0 0 30 24 50 65 54 22 2 46 4
53 5 6 1 12 -8 12 -20z"/>
</g>
</g></g></g></g></g></svg>